<?xml version="1.0" standalone="no"?>
<!DOCTYPE svg PUBLIC "-//W3C//DTD SVG 20010904//EN"
 "http://www.w3.org/TR/2001/REC-SVG-20010904/DTD/svg10.dtd">
<svg version="1.0" xmlns="http://www.w3.org/2000/svg"
 width="1024.000000pt" height="1024.000000pt" viewBox="0 0 1024.000000 1024.000000"
 preserveAspectRatio="xMidYMid meet">
<metadata>
Created by potrace 1.16, written by Peter Selinger 2001-2019
</metadata>
<g transform="translate(0.000000,1024.000000) scale(0.100000,-0.100000)"
fill="#000000" stroke="none">
<path d="M0 5120 l0 -5120 5120 0 5120 0 0 5120 0 5120 -5120 0 -5120 0 0
-5120z m5570 3746 c664 -89 1263 -338 1760 -735 129 -103 397 -372 504 -506
313 -393 560 -893 669 -1353 4 -16 -14 -4 -70 48 -137 128 -307 226 -504 290
-120 40 -200 57 -372 80 -91 12 -144 23 -156 34 -9 9 -39 51 -66 93 -159 253
-387 498 -645 692 -545 409 -1247 594 -1935 509 l-92 -11 -99 40 c-369 150
-676 215 -1024 216 -291 1 -483 -33 -775 -138 -37 -13 35 43 180 139 479 320
1066 533 1655 600 74 9 151 17 170 20 19 2 179 3 355 1 229 -2 355 -7 445 -19z
m-4065 -641 c99 -65 210 -138 248 -162 37 -23 67 -45 67 -47 0 -6 -179 -126
-357 -240 l-151 -97 -209 137 c-114 75 -227 148 -251 163 -23 14 -41 30 -39
36 6 16 490 336 502 331 6 -2 92 -57 190 -121z m3851 -526 c411 -41 810 -196
1147 -447 111 -82 318 -280 403 -384 31 -38 55 -70 53 -73 -3 -2 -27 -6 -54
-9 l-50 -6 -80 96 c-275 332 -706 585 -1167 688 -181 40 -281 50 -483 50 -287
0 -483 -31 -739 -115 -391 -128 -759 -379 -995 -679 -24 -30 -46 -55 -50 -55
-27 2 -91 18 -91 24 0 15 117 153 213 249 176 178 342 298 577 416 280 142
505 207 865 249 70 9 350 6 451 -4z m-2517 -1436 c55 -170 114 -353 131 -408
18 -55 35 -103 39 -108 4 -4 70 72 147 169 76 97 210 266 296 375 l158 199
241 0 c189 0 240 -3 236 -12 -2 -7 -54 -76 -115 -153 -62 -77 -311 -394 -555
-705 l-443 -565 -211 -3 -211 -2 -45 122 c-25 68 -66 175 -90 238 -24 63 -90
237 -147 385 -56 149 -143 376 -192 505 -50 129 -93 243 -96 253 -4 16 19 17
376 17 l381 0 100 -307z m2491 144 c181 -36 250 -98 250 -226 0 -61 -73 -407
-126 -595 -48 -171 -105 -250 -224 -305 -132 -62 -168 -66 -650 -66 -418 1
-438 2 -515 23 -84 23 -144 59 -179 105 -15 21 -22 47 -24 100 -3 62 6 113 67
371 77 321 106 401 171 466 70 69 191 118 346 139 111 15 794 6 884 -12z
m1040 2 c0 -21 -54 -263 -115 -514 -56 -231 -92 -382 -126 -537 l-33 -148
-244 0 c-227 0 -243 1 -238 18 6 17 70 286 106 442 11 47 35 150 54 230 19 80
54 232 78 337 l43 193 238 0 c233 0 237 0 237 -21z m1235 11 c176 -13 283 -33
360 -69 78 -37 110 -70 125 -132 15 -63 7 -109 -71 -423 -70 -279 -100 -363
-152 -422 -69 -78 -215 -132 -419 -154 -93 -10 -1088 -15 -1088 -5 0 7 35 158
86 370 26 105 64 264 86 355 21 91 52 219 68 285 16 66 32 139 36 163 l7 42
411 0 c226 0 474 -5 551 -10z m-5760 -990 c244 -406 593 -641 993 -666 l103
-7 51 -76 c131 -196 348 -424 541 -569 246 -185 553 -338 862 -427 257 -74
495 -106 781 -105 l194 2 133 -62 c447 -209 892 -304 1262 -270 290 26 579
109 835 240 83 43 91 45 60 19 -134 -115 -446 -315 -651 -418 -826 -415 -1845
-528 -2749 -306 -835 205 -1532 660 -1984 1294 -316 444 -520 991 -542 1456
l-5 110 38 -75 c22 -42 56 -105 78 -140z m5148 -486 c20 -4 37 -12 37 -19 0
-27 -190 -265 -291 -365 -595 -590 -1499 -806 -2303 -553 -356 112 -671 300
-923 551 -102 101 -253 286 -253 309 0 8 62 33 83 33 3 0 25 -28 50 -63 25
-34 82 -104 128 -154 326 -356 812 -601 1322 -668 135 -17 403 -20 527 -5 147
18 340 60 465 102 251 84 536 245 725 410 122 107 260 256 322 348 29 44 58
79 63 80 6 0 27 -3 48 -6z m-1253 -2529 c65 -20 115 -68 124 -119 14 -75 -33
-163 -99 -188 -19 -6 -35 -14 -35 -18 1 -3 19 -14 42 -25 63 -30 83 -64 83
-139 0 -99 -50 -156 -165 -190 -42 -12 -102 -16 -267 -16 -117 0 -213 1 -213
3 0 1 16 159 35 351 19 192 35 351 35 352 0 8 86 12 235 9 125 -2 185 -8 225
-20z m758 5 c28 -6 70 -25 92 -41 55 -40 73 -85 68 -171 -3 -55 -9 -75 -34
-110 -24 -35 -90 -83 -137 -100 -4 -2 19 -44 51 -93 32 -50 71 -111 86 -137
l28 -48 -106 0 c-58 0 -109 -1 -113 -2 -5 -1 -38 49 -74 112 -37 63 -72 121
-78 128 -7 6 -29 12 -50 12 -37 0 -39 -2 -44 -37 -3 -21 -9 -77 -13 -125 l-7
-88 -100 0 -100 0 7 63 c3 34 17 184 31 332 14 149 28 283 31 299 l6 28 202
-6 c112 -3 226 -10 254 -16z"/>
<path d="M1220 8229 c-28 -11 -100 -78 -100 -92 0 -5 15 -7 34 -4 50 8 171
-10 224 -33 25 -11 70 -39 99 -61 l53 -40 0 38 c-1 76 -57 156 -132 187 -41
18 -139 20 -178 5z"/>
<path d="M1084 8054 c-15 -104 58 -218 158 -244 98 -27 219 15 260 90 l19 35
-43 38 c-91 79 -211 127 -323 127 l-64 0 -7 -46z"/>
<path d="M4613 6201 c-46 -12 -80 -36 -97 -70 -15 -28 -97 -361 -132 -531 -33
-161 -19 -170 253 -170 163 0 194 3 230 19 23 11 48 30 57 43 15 23 43 132
116 451 42 183 41 208 -4 241 -25 19 -43 21 -209 23 -100 1 -197 -2 -214 -6z"/>
<path d="M7045 6189 c-91 -394 -119 -516 -145 -621 -16 -70 -30 -130 -30 -133
0 -4 105 -5 233 -3 197 3 238 6 275 22 51 22 88 64 102 114 37 139 120 500
120 527 0 42 -32 81 -78 96 -20 6 -135 13 -254 16 l-217 5 -6 -23z"/>
<path d="M5457 2223 c-3 -38 -2 -72 3 -77 5 -5 38 -7 74 -4 83 5 120 29 124
81 5 52 -23 67 -119 67 l-76 0 -6 -67z"/>
<path d="M5436 1988 c-3 -18 -7 -55 -8 -83 l-3 -50 83 2 c90 2 124 15 144 58
30 65 -24 105 -141 105 l-70 0 -5 -32z"/>
<path d="M6217 2239 c-4 -30 -7 -73 -7 -96 l0 -43 73 1 c39 0 88 5 107 12 43
15 76 70 66 110 -11 44 -48 60 -146 65 l-87 4 -6 -53z"/>
</g>
</svg>
