<?xml version="1.0" standalone="no"?>
<!DOCTYPE svg PUBLIC "-//W3C//DTD SVG 20010904//EN"
 "http://www.w3.org/TR/2001/REC-SVG-20010904/DTD/svg10.dtd">
<svg version="1.0" xmlns="http://www.w3.org/2000/svg"
 width="640.000000pt" height="426.000000pt" viewBox="0 0 640.000000 426.000000"
 preserveAspectRatio="xMidYMid meet">
<metadata>
Created by potrace 1.16, written by Peter Selinger 2001-2019
</metadata>
<g transform="translate(0.000000,426.000000) scale(0.100000,-0.100000)"
fill="#000000" stroke="none">
<path d="M0 2130 l0 -2130 3200 0 3200 0 0 2130 0 2130 -3200 0 -3200 0 0
-2130z m3245 1463 l48 -6 -64 -26 c-190 -77 -326 -226 -374 -411 -8 -32 -17
-46 -31 -48 -41 -7 -148 -44 -207 -72 l-61 -30 -163 162 -163 163 22 17 c56
42 192 116 283 154 175 72 323 101 526 103 75 0 158 -2 184 -6z m-62 -273 c3
-13 14 -20 28 -20 21 0 21 -1 6 -18 -10 -11 -14 -26 -10 -41 5 -22 4 -22 -17
-11 -16 9 -25 9 -33 1 -18 -18 -29 -13 -22 10 4 13 0 27 -11 40 -16 18 -16 19
5 19 14 0 25 7 28 20 3 11 9 20 13 20 4 0 10 -9 13 -20z m861 -113 c173 -173
281 -347 352 -564 19 -59 34 -113 34 -120 0 -10 -50 -13 -252 -13 l-253 1 -32
70 -33 71 20 28 c12 16 32 54 46 85 80 175 71 370 -28 558 -20 39 34 -5 146
-116z m-487 103 c10 0 13 -6 9 -16 -3 -9 -6 -19 -6 -24 0 -4 -10 -7 -23 -7
-16 0 -23 5 -23 21 0 23 19 50 24 35 2 -5 11 -9 19 -9z m-157 -168 c0 -14 -7
-19 -25 -19 -29 0 -38 25 -17 49 12 15 16 15 28 3 8 -7 14 -22 14 -33z m323
18 c3 -13 14 -20 28 -20 21 0 21 -1 6 -18 -10 -11 -14 -26 -10 -41 5 -21 4
-22 -16 -10 -17 11 -25 12 -42 1 -19 -12 -20 -11 -14 8 4 14 1 28 -11 41 -16
18 -16 19 5 19 14 0 25 7 28 20 3 11 9 20 13 20 4 0 10 -9 13 -20z m-43 -206
c0 -8 -7 -14 -15 -14 -15 0 -21 21 -9 33 10 9 24 -2 24 -19z m195 -12 c-3 -8
-5 -17 -5 -20 0 -4 -11 -7 -25 -7 -16 0 -23 5 -21 12 3 7 1 15 -5 19 -6 3 -3
11 7 19 22 15 57 -2 49 -23z m-745 -312 c69 -11 166 -53 215 -94 l30 -25 -319
-1 c-312 0 -319 0 -302 19 28 31 130 80 198 95 80 18 98 18 178 6z m-1424
-272 c35 -73 66 -134 68 -136 3 -2 55 38 118 88 62 51 135 110 161 131 l49 39
109 0 c71 0 108 -4 104 -10 -3 -6 -50 -10 -106 -10 l-100 0 -152 -122 c-84
-68 -158 -128 -165 -135 -7 -7 -17 -13 -21 -13 -4 0 -37 63 -75 140 l-67 140
-145 0 c-112 0 -144 -3 -144 -13 0 -7 52 -118 115 -245 l114 -232 54 0 c63 0
52 -7 331 220 291 236 309 250 319 250 17 0 -17 -32 -149 -139 -72 -58 -199
-161 -283 -229 l-152 -123 -67 3 -67 3 -127 255 c-70 140 -127 258 -127 263
-1 4 76 7 169 7 l171 0 65 -132z m1185 109 c43 -19 59 -37 79 -89 l16 -39 18
63 c11 35 23 69 29 76 11 14 232 18 241 4 3 -5 -4 -33 -14 -63 -10 -30 -48
-144 -84 -254 l-65 -200 -115 -3 c-89 -2 -118 0 -121 10 -3 8 4 40 15 72 11
33 20 63 20 67 0 4 -24 -16 -53 -45 -83 -84 -134 -99 -344 -104 -139 -3 -182
-1 -229 13 -101 29 -139 95 -116 203 27 130 110 243 205 280 77 31 77 31 287
28 155 -2 202 -6 231 -19z m889 3 c48 -18 86 -47 98 -76 17 -35 -2 -37 -22 -2
-35 59 -82 69 -304 69 -108 0 -205 0 -214 0 -13 -1 -34 -55 -92 -235 -42 -128
-76 -236 -76 -240 0 -10 338 -7 413 4 84 12 155 48 196 97 33 40 37 40 22 0
-13 -34 -84 -81 -159 -106 -54 -19 -86 -21 -276 -21 -118 0 -217 3 -219 8 -3
4 8 48 24 97 105 322 130 402 135 413 6 19 422 12 474 -8z m550 -25 c35 -18
50 -43 50 -85 0 -31 -24 -90 -38 -90 -4 -1 -17 -9 -30 -20 l-23 -19 22 -22
c17 -17 20 -30 17 -64 -7 -56 -32 -90 -90 -120 -46 -24 -55 -25 -243 -25 -107
0 -195 3 -195 6 0 5 124 412 135 442 7 19 356 17 395 -3z m551 -8 c31 -21 34
-28 37 -77 2 -41 -3 -63 -17 -87 -22 -35 -95 -93 -118 -93 -18 0 -17 -2 18
-71 16 -33 34 -72 39 -85 l10 -25 -92 3 -92 3 -31 75 c-30 73 -32 75 -65 75
-33 0 -34 -1 -57 -77 l-24 -78 -79 0 c-44 0 -80 3 -80 7 0 3 15 54 34 112 18
58 49 159 67 223 l34 118 191 0 c182 0 193 -1 225 -23z m-1241 -67 c25 -25 25
-42 1 -119 -24 -77 -63 -144 -100 -170 -35 -25 -147 -31 -138 -8 3 7 26 78 52
158 26 79 50 147 52 152 2 4 29 7 59 7 41 0 59 -5 74 -20z m-240 -435 c0 -3
-19 -22 -41 -43 -167 -151 -437 -149 -609 7 l-45 40 348 1 c191 0 347 -2 347
-5z m583 -20 c-3 -9 -8 -14 -10 -11 -3 3 -2 9 2 15 9 16 15 13 8 -4z m197
-581 c0 -8 -19 -13 -24 -6 -3 5 1 9 9 9 8 0 15 -2 15 -3z"/>
<path d="M2440 2461 c-122 -26 -220 -139 -251 -288 -10 -51 -10 -67 2 -98 30
-79 103 -99 334 -92 195 6 239 19 315 95 93 94 143 252 101 319 -38 61 -64 67
-276 70 -104 1 -206 -2 -225 -6z m274 -84 c22 -22 23 -28 14 -78 -14 -77 -62
-173 -106 -208 -33 -28 -43 -31 -106 -31 -111 0 -129 35 -82 164 45 125 103
176 199 176 47 0 62 -4 81 -23z"/>
<path d="M2545 2361 c-55 -33 -126 -197 -111 -256 6 -24 10 -25 80 -25 72 0
75 1 105 35 40 46 66 97 84 167 13 50 13 59 0 77 -19 28 -114 29 -158 2z"/>
<path d="M3045 2458 c-3 -7 -17 -49 -31 -93 -87 -272 -114 -360 -114 -372 0
-11 21 -13 98 -11 l97 3 53 165 c29 91 62 188 72 215 11 28 22 62 26 78 l6 27
-101 0 c-72 0 -103 -4 -106 -12z"/>
<path d="M4057 2325 l-16 -45 79 0 c75 0 81 2 97 26 28 43 9 58 -74 62 l-71 3
-15 -46z"/>
<path d="M4016 2175 c-9 -9 -16 -22 -16 -28 0 -7 -3 -23 -7 -36 -6 -23 -6 -23
75 -20 67 3 84 8 96 24 18 23 20 51 6 60 -5 3 -38 8 -74 11 -50 4 -67 1 -80
-11z"/>
<path d="M4589 2333 c-6 -16 -13 -41 -16 -57 l-6 -28 72 4 c61 3 75 8 97 30
21 20 25 32 20 52 -6 25 -9 26 -81 26 -73 0 -76 -1 -86 -27z"/>
<path d="M3480 2238 c-24 -73 -46 -139 -48 -145 -3 -9 9 -13 38 -13 36 0 48 6
75 34 37 40 67 100 85 173 17 67 6 83 -59 83 l-47 0 -44 -132z"/>
</g>
</svg>
